<?xml version="1.0" encoding="UTF-8"?>
<svg id="Layer_1" xmlns="http://www.w3.org/2000/svg" viewBox="0 0 220.63 62.91">
  <defs>
    <style>
      .cls-1 {
        fill: #fff;
      }
    </style>
  </defs>
  <g>
    <path class="cls-1" d="M31.46,0C14.08,0,0,14.08,0,31.46s14.08,31.46,31.46,31.46,31.46-14.08,31.46-31.46S48.83,0,31.46,0ZM31.46,60.36c-15.96,0-28.9-12.94-28.9-28.9S15.49,2.55,31.46,2.55s28.9,12.94,28.9,28.9-12.94,28.9-28.9,28.9Z"/>
    <path class="cls-1" d="M32.44,13.13c-.79-1.7-3.22-1.7-4.02,0l-1.39,2.97-8.58,18.38s-.04.08-.05.12l-1.74,3.71c-.44.93-.65,1.93-.65,2.94s.22,2.01.65,2.94c2.49,5.34,10.09,5.34,12.58,0,.87-1.86.87-4.01,0-5.87l-4.99-10.66c-.26-.56-.26-1.21,0-1.78l2.67-5.73c.39-.84,1.59-.84,1.98,0l12.26,26.26c.72,1.54,2.55,2.21,4.09,1.49,1.54-.72,2.21-2.54,1.49-4.08l-14.32-30.68Z"/>
  </g>
  <g>
    <path class="cls-1" d="M219.25,36.78c-.89-1.02-1.95-1.78-3.19-2.29-1.21-.54-2.77-1.06-4.67-1.57-1.43-.41-2.51-.75-3.24-1-.73-.29-1.35-.67-1.86-1.14-.51-.48-.76-1.06-.76-1.76,0-.89.38-1.6,1.14-2.15s1.86-.81,3.29-.81,2.62.35,3.48,1.05c.86.7,1.33,1.64,1.43,2.81h5.44c-.13-2.61-1.11-4.66-2.96-6.15-1.81-1.53-4.21-2.29-7.2-2.29-2,0-3.78.33-5.34,1-1.53.67-2.7,1.59-3.53,2.76-.83,1.14-1.24,2.42-1.24,3.81,0,1.72.45,3.1,1.33,4.15.92,1.05,2,1.83,3.24,2.34,1.24.51,2.85,1.03,4.82,1.57,2.03.57,3.51,1.1,4.43,1.57.95.48,1.43,1.21,1.43,2.19,0,.92-.43,1.68-1.29,2.29-.83.57-2,.86-3.53.86s-2.68-.37-3.67-1.1c-.95-.76-1.48-1.7-1.57-2.81h-5.62c.06,1.59.57,3.03,1.52,4.34.95,1.27,2.24,2.29,3.86,3.05,1.65.73,3.51,1.1,5.58,1.1s3.8-.33,5.29-1c1.52-.67,2.7-1.59,3.53-2.77.83-1.18,1.24-2.51,1.24-4-.03-1.68-.49-3.04-1.38-4.05Z"/>
    <path class="cls-1" d="M191.23,11.47c-.99,0-1.81.33-2.48,1-.67.67-1,1.49-1,2.48s.33,1.81,1,2.48c.67.67,1.49,1,2.48,1s1.76-.33,2.43-1,1-1.49,1-2.48-.33-1.81-1-2.48-1.48-1-2.43-1Z"/>
    <rect class="cls-1" x="188.46" y="21.91" width="5.44" height="26.27"/>
    <path class="cls-1" d="M176.29,22.77c-1.62-.86-3.46-1.29-5.53-1.29-1.56,0-3.04.3-4.43.91-1.37.6-2.49,1.45-3.39,2.53v-3h-5.43v26.27h5.43v-14.68c0-2.35.59-4.15,1.76-5.39,1.21-1.27,2.83-1.91,4.86-1.91s3.64.64,4.82,1.91c1.18,1.24,1.76,3.04,1.76,5.39v14.68h5.39v-15.49c0-2.38-.46-4.42-1.38-6.1-.92-1.68-2.21-2.96-3.86-3.81Z"/>
    <path class="cls-1" d="M145.3,22.77c-1.62-.86-3.46-1.29-5.53-1.29-1.94,0-3.75.48-5.43,1.43-1.68.92-2.92,2.18-3.72,3.77-.89-1.68-2.16-2.97-3.81-3.86-1.65-.89-3.53-1.33-5.63-1.33-1.56,0-3.02.3-4.39.91-1.37.6-2.49,1.45-3.38,2.53v-3h-5.43v26.27h5.43v-14.68c0-2.35.59-4.15,1.76-5.39,1.21-1.27,2.83-1.91,4.86-1.91s3.64.64,4.81,1.91c1.18,1.24,1.76,3.04,1.76,5.39v14.68h5.39v-14.68c0-2.35.59-4.15,1.76-5.39,1.21-1.27,2.83-1.91,4.86-1.91s3.64.64,4.81,1.91c1.18,1.24,1.76,3.04,1.76,5.39v14.68h5.39v-15.49c0-2.38-.48-4.42-1.43-6.1-.92-1.68-2.21-2.96-3.86-3.81Z"/>
    <path class="cls-1" d="M84.65,14.99l-11.87,33.18h5.67l2.38-6.77h13.87l2.38,6.77h5.72l-11.87-33.18h-6.29ZM82.36,36.97l5.43-15.4,5.39,15.4h-10.82Z"/>
  </g>
</svg>